<?xml version="1.0" standalone="no"?>
<!DOCTYPE svg PUBLIC "-//W3C//DTD SVG 20010904//EN"
 "http://www.w3.org/TR/2001/REC-SVG-20010904/DTD/svg10.dtd">
<svg version="1.0" xmlns="http://www.w3.org/2000/svg"
 width="225.000000pt" height="225.000000pt" viewBox="0 0 225.000000 225.000000"
 preserveAspectRatio="xMidYMid meet">
<metadata>
Created by potrace 1.14, written by Peter Selinger 2001-2017
</metadata>
<g transform="translate(0.000000,225.000000) scale(0.100000,-0.100000)"
fill="#000000" stroke="none">
<path d="M496 1914 c-3 -9 -12 -14 -19 -11 -45 19 -47 19 -47 3 0 -20 -10 -20
-38 0 -21 14 -22 14 -22 -11 0 -22 -3 -24 -19 -15 -29 15 -40 12 -34 -10 5
-19 3 -19 -22 -10 -34 13 -43 6 -24 -16 13 -16 11 -17 -24 -11 l-38 6 23 -19
23 -19 -34 -1 c-32 0 -33 -1 -16 -14 17 -12 16 -14 -11 -21 l-29 -7 25 -11 25
-10 -30 -6 -30 -7 30 -11 30 -11 -25 -10 -25 -11 28 0 c33 -1 35 -14 5 -29
-21 -10 -19 -11 17 -12 37 -1 39 -2 21 -15 -19 -14 -18 -15 14 -15 32 0 33 0
15 -20 -21 -23 -21 -23 23 -11 31 9 33 8 26 -11 -5 -17 -3 -20 10 -15 9 4 23
10 31 13 11 4 15 0 15 -15 0 -25 3 -26 35 -5 24 16 25 15 25 -5 0 -25 7 -26
32 -4 17 15 19 15 33 -3 15 -19 15 -19 30 0 14 19 15 19 35 1 20 -19 21 -18
27 3 5 21 7 22 29 7 30 -20 34 -19 34 5 0 17 3 18 26 10 33 -13 33 -13 27 10
-6 23 -4 24 31 10 28 -10 34 -2 14 19 -11 11 -6 12 25 9 l38 -4 -23 18 -23 18
40 0 c36 1 38 2 18 12 -31 15 -29 28 5 29 l27 0 -25 10 -25 11 30 13 30 13
-27 1 c-29 1 -40 21 -12 21 8 0 12 5 9 10 -3 6 -16 10 -28 10 -21 1 -21 1 3
15 l25 14 -35 1 -35 1 23 19 23 19 -36 -6 c-36 -6 -44 4 -23 25 15 15 8 15
-27 2 -26 -10 -27 -9 -21 15 7 26 7 26 -24 10 -30 -15 -30 -15 -30 10 0 25 -1
25 -22 11 -29 -21 -35 -20 -43 5 l-7 21 -23 -22 -23 -22 -7 21 c-8 25 -21 27
-29 5z m-140 -153 c-3 -5 -15 -7 -26 -4 -14 4 -20 0 -20 -12 0 -11 5 -15 14
-12 10 4 13 1 10 -8 -3 -8 -11 -12 -19 -9 -7 3 -15 -2 -19 -12 -5 -13 -2 -15
19 -12 16 4 24 1 22 -6 -2 -6 -20 -12 -40 -14 l-37 -3 15 41 c8 23 12 46 9 51
-3 5 13 9 36 9 23 0 39 -4 36 -9z m191 -7 c3 -8 -4 -26 -18 -40 -17 -19 -19
-23 -6 -18 10 3 17 1 17 -5 0 -15 -26 -25 -46 -17 -12 5 -11 10 11 33 25 28
28 50 6 45 -7 -1 -10 2 -6 8 9 15 35 12 42 -6z m73 -13 c0 -34 -31 -77 -48
-67 -29 18 -5 96 28 96 15 0 20 -7 20 -29z m70 0 c0 -34 -31 -77 -48 -67 -29
18 -5 96 28 96 15 0 20 -7 20 -29z m66 2 c-8 -16 -22 -37 -31 -48 -11 -13 -10
-8 4 18 l20 37 -20 0 c-11 0 -17 5 -14 10 3 6 17 10 31 10 24 0 24 -1 10 -27z
m-315 -23 c-10 -29 -9 -31 11 -25 14 5 19 3 16 -5 -2 -7 -17 -14 -32 -16 -26
-3 -28 -1 -23 24 5 22 2 28 -13 29 -17 2 -18 -1 -7 -17 9 -15 9 -22 0 -31 -13
-13 -43 -5 -43 12 0 8 4 8 15 -1 9 -8 15 -9 15 -2 0 6 -4 14 -10 17 -24 15 -9
35 24 35 19 0 38 5 41 11 13 20 17 0 6 -31z"/>
<path d="M585 1729 c-10 -43 -1 -46 12 -4 6 19 7 35 3 35 -5 0 -11 -14 -15
-31z"/>
<path d="M655 1729 c-10 -43 -1 -46 12 -4 6 19 7 35 3 35 -5 0 -11 -14 -15
-31z"/>
<path d="M2088 1883 c6 -2 18 -2 25 0 6 3 1 5 -13 5 -14 0 -19 -2 -12 -5z"/>
<path d="M1385 1520 c-3 -6 1 -7 9 -4 18 7 21 14 7 14 -6 0 -13 -4 -16 -10z"/>
<path d="M1095 1500 c-4 -6 -16 -8 -28 -5 -12 2 -16 2 -9 -1 6 -3 9 -10 6 -16
-4 -6 2 -6 14 1 20 11 38 31 28 31 -3 0 -8 -5 -11 -10z"/>
<path d="M915 1441 c-3 -5 -2 -12 3 -15 5 -3 9 1 9 9 0 17 -3 19 -12 6z"/>
<path d="M1148 1428 c5 -5 16 -8 23 -6 8 3 3 7 -10 11 -17 4 -21 3 -13 -5z"/>
<path d="M350 1421 c-33 -6 -34 -7 -10 -14 32 -9 108 -7 140 3 24 8 24 8 -6 9
-17 1 -44 3 -60 5 -16 2 -45 1 -64 -3z"/>
<path d="M475 1395 l-40 -13 43 -1 c24 -1 41 3 37 8 -3 5 3 12 12 14 12 3 13
5 3 5 -8 0 -33 -6 -55 -13z"/>
<path d="M800 1374 c0 -14 4 -23 10 -19 5 3 6 13 3 21 -5 13 -1 15 15 9 13 -4
22 -2 22 4 0 6 -11 11 -25 11 -20 0 -25 -5 -25 -26z"/>
<path d="M1146 1392 c-4 -3 -6 -186 -6 -406 1 -284 4 -396 11 -383 9 16 12
590 4 731 -2 27 1 44 5 40 10 -10 16 -762 6 -771 -3 -4 -6 -19 -6 -35 0 -15
-4 -28 -10 -28 -5 0 -10 -7 -10 -16 0 -12 -9 -9 -40 13 l-41 28 0 395 c-1 255
-4 381 -10 355 -11 -49 -8 -733 3 -757 4 -9 5 -18 0 -21 -4 -2 -1 -2 6 0 7 1
28 -8 46 -22 40 -31 42 -31 50 -2 7 21 7 21 16 2 7 -17 9 -16 10 10 1 26 3 27
10 10 5 -11 9 -15 9 -8 2 20 -11 43 -20 37 -5 -3 -9 5 -9 18 0 18 2 20 10 8
12 -19 11 -61 10 395 -1 292 -4 391 -13 397 -9 6 -9 8 0 8 7 0 18 -9 25 -20 7
-11 17 -20 23 -20 6 0 18 9 28 20 12 14 29 20 59 19 44 0 102 -17 66 -18 -14
-1 -18 -10 -18 -35 0 -19 -4 -38 -10 -41 -6 -4 -10 -97 -10 -246 0 -153 4
-239 10 -239 6 0 10 -15 10 -33 0 -17 5 -48 10 -67 11 -38 -4 -140 -21 -140
-5 0 -9 -18 -9 -39 0 -26 -5 -41 -16 -45 -17 -7 -37 1 -30 12 2 4 1 23 -4 42
-6 28 -8 20 -7 -37 1 -68 7 -87 22 -63 3 6 1 10 -5 10 -6 0 -8 5 -5 11 4 5 12
8 18 6 13 -4 40 22 57 53 10 18 9 21 -1 15 -9 -6 -11 -3 -6 9 4 10 8 27 8 39
1 17 3 15 10 -8 6 -22 7 -16 4 25 -3 39 -2 48 4 30 6 -15 9 134 10 371 l1 397
-124 0 c-69 0 -127 -3 -130 -6z m101 -8 c-3 -3 -12 -4 -19 -1 -8 3 -5 6 6 6
11 1 17 -2 13 -5z m130 -636 c-2 -13 -4 -3 -4 22 0 25 2 35 4 23 2 -13 2 -33
0 -45z"/>
<path d="M1765 1390 l160 -6 -207 -2 -208 -2 0 -487 0 -488 128 0 127 0 3 213
c1 139 -1 212 -8 212 -6 0 -10 -73 -10 -206 l0 -205 -77 2 c-66 1 -81 5 -95
23 -15 18 -18 19 -18 4 0 -11 -8 -18 -20 -18 -20 0 -20 7 -20 438 l0 438 42 1
c24 1 44 7 46 13 2 6 59 10 154 10 83 0 148 3 144 7 -10 10 -296 11 -296 1 0
-5 -20 -8 -45 -8 -35 0 -45 4 -45 16 0 11 5 14 17 10 9 -4 20 -1 25 6 6 10 10
10 19 -2 8 -11 12 -12 16 -2 3 9 46 12 163 12 117 0 160 -3 163 -12 7 -16 27
10 26 32 -1 11 -3 10 -6 -2 -5 -20 -24 -25 -20 -5 1 9 -36 12 -158 13 l-160 0
160 -6z"/>
<path d="M2022 943 l3 -458 5 445 c3 245 8 438 11 431 4 -12 7 -12 12 3 4 9 3
15 -2 11 -5 -3 -12 -1 -15 4 -4 5 2 12 11 14 14 4 13 5 -4 6 l-23 1 2 -457z"/>
<path d="M2068 908 c-1 -271 -3 -476 -5 -455 -6 51 -23 47 -23 -5 0 -33 -3
-40 -11 -28 -9 13 -10 13 -6 0 2 -9 14 -15 30 -14 15 1 65 2 112 3 47 0 85 5
85 9 0 5 -38 8 -85 7 l-85 -2 0 474 0 473 88 2 87 2 -90 6 -90 6 90 5 90 5
-92 2 -93 2 -2 -492z"/>
<path d="M203 1373 c-26 -18 -29 -29 -9 -36 8 -3 13 1 12 10 0 9 4 18 10 20 6
2 10 -6 8 -19 -1 -13 -3 -26 -3 -30 -2 -13 -29 -9 -45 7 -13 14 -16 13 -26 -5
-6 -11 -9 -20 -8 -21 33 -8 38 -7 26 8 -11 14 -9 14 19 0 37 -19 47 -21 38 -7
-3 6 3 10 14 10 11 0 23 5 26 10 9 15 212 13 217 -2 3 -8 12 -8 36 3 39 17 41
29 5 30 -102 3 -260 -4 -270 -12 -7 -7 -14 -6 -18 1 -9 15 0 23 43 36 20 7 29
12 20 13 -9 1 -28 -3 -42 -8 -13 -6 -26 -6 -28 -2 -2 5 -13 2 -25 -6z"/>
<path d="M328 1383 c6 -2 18 -2 25 0 6 3 1 5 -13 5 -14 0 -19 -2 -12 -5z"/>
<path d="M574 1367 c1 -11 7 -22 14 -25 8 -2 10 2 5 15 -6 16 -5 16 10 4 9 -7
17 -9 17 -4 0 5 -11 15 -24 21 -20 9 -23 8 -22 -11z"/>
<path d="M383 1373 c9 -2 25 -2 35 0 9 3 1 5 -18 5 -19 0 -27 -2 -17 -5z"/>
<path d="M538 1373 c7 -3 16 -2 19 1 4 3 -2 6 -13 5 -11 0 -14 -3 -6 -6z"/>
<path d="M1290 1365 c7 -8 18 -15 25 -15 7 0 15 7 19 15 4 11 -2 15 -26 15
-26 0 -29 -2 -18 -15z"/>
<path d="M638 1338 c11 -14 10 -16 -7 -11 -12 3 -21 1 -21 -6 0 -6 6 -11 13
-11 22 0 38 -16 31 -33 -7 -18 -39 -23 -49 -8 -3 6 2 14 10 18 12 7 9 12 -19
26 -28 13 -34 13 -30 2 4 -10 0 -12 -15 -8 -34 9 -24 -13 15 -32 30 -14 35
-21 31 -42 -4 -21 -2 -24 18 -19 14 4 25 1 28 -7 4 -9 6 -9 6 0 1 7 7 10 14 8
33 -13 10 110 -25 131 -10 6 -10 4 0 -8z"/>
<path d="M2090 1338 c0 -4 37 -8 82 -8 45 0 78 3 74 7 -10 10 -156 11 -156 1z"/>
<path d="M1302 1073 l3 -258 2 238 c3 206 5 237 19 237 21 0 14 34 -9 38 -16
3 -17 -14 -15 -255z"/>
<path d="M1924 1297 c4 -34 3 -36 -14 -27 -24 13 -70 13 -70 0 0 -5 18 -10 40
-10 29 0 40 -4 40 -15 0 -12 -15 -15 -79 -15 -93 0 -91 2 -91 -107 0 -96 12
-88 15 9 l2 73 91 3 91 3 -6 37 c-4 20 -10 48 -15 62 -6 20 -7 17 -4 -13z"/>
<path d="M953 1278 c-32 -23 -42 -38 -24 -38 6 0 16 8 23 18 7 11 27 24 43 30
22 8 25 11 10 11 -11 1 -35 -9 -52 -21z"/>
<path d="M127 1270 c-9 -34 -9 -52 2 -46 5 3 12 -2 15 -11 4 -9 2 -19 -3 -22
-15 -10 -27 -141 -13 -141 6 0 9 -6 6 -13 -2 -7 3 -21 11 -32 15 -19 16 -19 4
5 -6 13 -8 25 -3 27 11 4 8 163 -3 218 -8 37 -9 38 -16 15z m10 -172 c-3 -7
-5 -2 -5 12 0 14 2 19 5 13 2 -7 2 -19 0 -25z"/>
<path d="M326 1283 c-11 -11 -7 -20 9 -20 8 0 15 4 15 8 0 11 -16 20 -24 12z"/>
<path d="M374 1281 c7 -10 -27 -34 -37 -25 -3 3 -8 1 -11 -4 -3 -6 1 -12 9
-16 8 -3 15 -1 15 5 0 6 4 8 9 5 5 -3 14 1 20 8 9 10 20 12 41 6 23 -7 28 -5
23 6 -3 9 -12 13 -20 10 -8 -3 -24 -1 -35 5 -14 7 -18 7 -14 0z"/>
<path d="M462 1283 c-6 -2 -10 -9 -6 -14 8 -14 21 -11 21 6 0 8 -1 15 -1 14
-1 0 -7 -3 -14 -6z"/>
<path d="M1000 1045 c0 -150 4 -235 10 -235 6 0 10 48 10 123 0 67 3 173 7
235 5 100 4 112 -10 112 -15 0 -17 -23 -17 -235z"/>
<path d="M1284 1050 c0 -129 2 -182 3 -117 2 64 2 170 0 235 -1 64 -3 11 -3
-118z"/>
<path d="M1580 886 c0 -306 -3 -395 -12 -399 -10 -4 -9 -8 2 -16 8 -6 18 -11
23 -11 4 0 7 184 7 410 0 267 -3 410 -10 410 -6 0 -10 -138 -10 -394z"/>
<path d="M506 1263 c-10 -10 -7 -43 5 -43 5 0 7 -5 3 -12 -4 -7 -3 -8 4 -4 7
4 12 18 12 31 0 25 -12 39 -24 28z"/>
<path d="M2041 1235 c0 -31 2 -36 9 -23 6 10 7 25 1 40 -9 20 -10 18 -10 -17z"/>
<path d="M450 1178 l0 -63 69 0 c40 0 64 3 55 8 -8 4 -14 14 -14 21 0 17 28
41 37 32 4 -4 1 -11 -7 -16 -8 -5 -11 -13 -6 -17 5 -4 11 -2 13 5 3 6 11 12
18 12 7 0 15 7 18 14 4 10 1 13 -8 10 -8 -3 -22 1 -30 10 -18 18 -40 22 -30 6
3 -6 -1 -17 -9 -26 -9 -8 -16 -22 -16 -30 0 -8 -9 -14 -20 -14 -12 0 -20 7
-20 18 0 14 -3 14 -18 -5 -17 -22 -17 -22 -16 37 0 33 -3 60 -8 60 -4 0 -8
-28 -8 -62z"/>
<path d="M890 1230 c0 -5 5 -10 10 -10 6 0 10 5 10 10 0 6 -4 10 -10 10 -5 0
-10 -4 -10 -10z"/>
<path d="M954 1228 c4 -13 0 -17 -15 -15 -31 3 -47 -26 -26 -48 16 -15 17 -15
17 4 0 12 6 21 14 21 22 0 29 17 16 37 -11 17 -11 17 -6 1z"/>
<path d="M856 1214 c-11 -8 -16 -14 -10 -14 13 0 39 18 34 24 -3 2 -14 -2 -24
-10z"/>
<path d="M321 1198 c1 -17 2 -19 6 -5 5 20 19 22 26 5 3 -8 6 -6 6 5 1 11 -6
17 -19 17 -14 0 -20 -6 -19 -22z"/>
<path d="M875 1170 c7 -22 6 -23 -8 -12 -9 8 -18 9 -21 3 -4 -5 -2 -12 4 -16
6 -4 11 -73 12 -173 l2 -167 3 163 c3 154 5 162 23 162 26 0 25 11 -1 41 l-21
24 7 -25z"/>
<path d="M800 893 c0 -158 3 -283 7 -279 4 4 6 122 5 262 -3 178 0 254 7 254
7 0 11 -44 12 -132 1 -179 8 -371 14 -377 11 -10 12 9 4 114 -4 61 -8 176 -8
256 -1 120 -4 148 -16 153 -8 3 -12 12 -9 21 3 8 1 15 -4 15 -8 0 -11 -93 -12
-287z"/>
<path d="M2042 1150 c0 -14 2 -19 5 -12 2 6 2 18 0 25 -3 6 -5 1 -5 -13z"/>
<path d="M342 1139 c-8 -12 -9 -18 -4 -15 13 8 5 -53 -9 -70 -6 -8 -8 -14 -3
-14 19 0 42 58 35 89 -6 31 -6 31 -19 10z"/>
<path d="M940 1142 c0 -5 7 -13 16 -16 10 -4 14 -1 12 6 -5 15 -28 23 -28 10z"/>
<path d="M320 1091 c0 -25 6 -27 13 -6 4 8 2 17 -3 20 -6 4 -10 -3 -10 -14z"/>
<path d="M655 1091 c-3 -5 -2 -12 3 -15 5 -3 9 1 9 9 0 17 -3 19 -12 6z"/>
<path d="M365 1080 c-7 -12 3 -32 13 -26 4 2 16 -3 27 -11 17 -13 17 -15 2
-10 -18 7 -64 -29 -52 -41 3 -4 9 -2 13 4 11 16 41 24 47 14 4 -6 13 -10 22
-10 13 0 13 3 3 15 -11 13 -10 15 6 10 19 -6 19 -6 0 7 -10 7 -31 23 -47 36
-17 14 -30 19 -34 12z"/>
<path d="M639 1043 c-13 -16 -12 -17 4 -4 9 7 17 15 17 17 0 8 -8 3 -21 -13z"/>
<path d="M485 1000 c-4 -6 -3 -10 1 -10 4 0 -1 -6 -12 -14 -10 -8 -17 -17 -14
-19 3 -3 17 5 32 18 20 17 24 25 13 29 -8 3 -17 1 -20 -4z"/>
<path d="M1770 1000 c8 -5 23 -7 33 -4 19 6 24 -12 5 -19 -8 -3 -6 -6 5 -6 10
-1 17 6 18 17 0 10 3 12 6 5 2 -8 22 -13 44 -13 42 0 44 -4 33 -59 -6 -27 -11
-31 -38 -30 -29 0 -30 1 -8 11 36 18 26 28 -27 28 -58 0 -75 -14 -28 -25 17
-4 27 -9 20 -12 -8 -3 -9 -12 -1 -34 9 -26 14 -29 54 -29 l44 0 0 90 0 90 -87
0 c-60 0 -83 -3 -73 -10z m144 -128 c2 -4 0 -14 -5 -22 -8 -12 -12 -12 -16 -2
-2 6 -17 12 -31 13 -24 0 -25 1 -7 9 26 11 53 12 59 2z"/>
<path d="M418 987 c-37 -10 -53 -37 -23 -37 9 0 15 -9 15 -22 l1 -23 13 24
c10 18 15 20 19 10 4 -8 4 -2 1 14 -5 20 -2 27 10 27 9 0 16 5 16 10 0 11 -1
11 -52 -3z"/>
<path d="M1765 980 c-3 -5 -1 -10 4 -10 6 0 11 5 11 10 0 6 -2 10 -4 10 -3 0
-8 -4 -11 -10z"/>
<path d="M186 965 c-5 -14 6 -29 46 -61 10 -8 17 -7 27 3 7 8 11 15 10 16 -32
17 -43 27 -41 39 2 7 0 10 -4 6 -4 -4 -13 -3 -19 2 -9 8 -14 6 -19 -5z m33
-18 c8 -10 7 -14 -4 -14 -8 0 -16 6 -19 14 -3 7 -2 13 3 13 5 0 14 -6 20 -13z"/>
<path d="M566 951 c-8 -12 19 -33 29 -23 5 4 5 1 1 -6 -5 -7 -15 -11 -23 -8
-8 3 -12 2 -8 -3 3 -5 -1 -12 -7 -14 -7 -3 3 -4 22 -2 21 3 41 -2 51 -11 10
-9 20 -11 23 -6 3 5 0 14 -7 20 -12 10 -17 12 -38 12 -5 0 -7 5 -4 11 4 6 -2
13 -14 16 -11 3 -18 9 -15 14 3 5 3 9 0 9 -3 0 -7 -4 -10 -9z"/>
<path d="M280 939 c0 -5 5 -7 10 -4 6 3 10 8 10 11 0 2 -4 4 -10 4 -5 0 -10
-5 -10 -11z"/>
<path d="M333 943 c-7 -2 -13 -18 -13 -34 0 -28 -2 -29 -22 -18 -21 11 -22 11
-9 -4 7 -10 10 -17 6 -17 -4 0 -2 -7 5 -15 7 -8 17 -15 23 -15 6 0 3 6 -7 13
-15 11 -12 12 23 12 48 -1 50 2 15 16 -25 9 -26 11 -10 28 27 29 21 47 -11 34z"/>
<path d="M421 883 c-9 -16 -12 -16 -21 -3 -9 12 -10 11 -5 -7 7 -27 -8 -37
-35 -23 -17 9 -20 8 -20 -9 0 -10 7 -22 16 -25 9 -4 13 -2 8 5 -4 7 -1 10 7 7
8 -3 13 -11 11 -17 -1 -7 2 -10 7 -6 6 3 8 12 4 20 -3 8 -1 15 5 15 12 0 46
50 39 57 -3 2 -10 -4 -16 -14z"/>
<path d="M1760 886 c0 -2 9 -6 20 -9 11 -3 20 -1 20 4 0 5 -9 9 -20 9 -11 0
-20 -2 -20 -4z"/>
<path d="M606 864 c-4 -9 -4 -19 -1 -22 2 -3 7 3 11 12 4 9 4 19 1 22 -2 3 -7
-3 -11 -12z"/>
<path d="M651 856 c-10 -11 -9 -14 1 -12 14 2 23 15 15 22 -2 2 -10 -2 -16
-10z"/>
<path d="M508 854 c-4 -4 -3 -13 4 -21 15 -18 2 -29 -17 -13 -8 7 -15 8 -15 2
0 -13 26 -23 45 -16 8 4 15 11 15 18 0 6 4 4 10 -4 5 -8 12 -11 17 -7 4 5 3
11 -3 15 -6 4 -14 14 -17 22 -4 12 -6 11 -6 -2 -1 -22 -18 -24 -23 -2 -2 9 -6
12 -10 8z"/>
<path d="M1770 845 c7 -8 17 -15 22 -15 6 0 5 7 -2 15 -7 8 -17 15 -22 15 -6
0 -5 -7 2 -15z"/>
<path d="M1810 845 c7 -9 15 -13 17 -11 7 7 -7 26 -19 26 -6 0 -6 -6 2 -15z"/>
<path d="M652 805 c0 -16 2 -22 5 -12 2 9 2 23 0 30 -3 6 -5 -1 -5 -18z"/>
<path d="M671 790 c0 -14 8 -43 18 -65 14 -28 20 -34 20 -19 1 11 -3 24 -8 30
-5 5 -14 25 -19 44 -8 29 -10 31 -11 10z"/>
<path d="M453 784 c-7 -7 -13 -19 -13 -26 0 -8 5 -6 11 5 6 9 14 15 20 12 5
-4 9 -2 9 4 0 17 -14 20 -27 5z"/>
<path d="M643 730 c0 -25 2 -35 4 -22 2 12 2 32 0 45 -2 12 -4 2 -4 -23z"/>
<path d="M123 744 c-2 -6 -2 -33 0 -60 l3 -49 2 54 c2 50 3 53 25 47 12 -3 60
-6 106 -6 66 0 82 -3 73 -12 -19 -19 -14 -29 8 -16 11 7 20 24 20 38 0 20 -2
22 -10 10 -6 -9 -13 -11 -17 -5 -11 14 -204 13 -210 -1z"/>
<path d="M470 739 c0 -5 -4 -8 -9 -4 -6 3 -6 -7 -1 -26 13 -46 18 -45 16 1 0
22 -2 40 -3 40 -2 0 -3 -5 -3 -11z"/>
<path d="M145 675 c3 -33 8 -71 12 -85 6 -23 5 -24 -12 -10 -17 14 -17 12 -10
-20 4 -19 11 -39 17 -45 6 -6 7 -1 3 17 -6 23 -4 26 14 21 15 -4 21 -13 21
-34 0 -15 -5 -31 -10 -34 -8 -5 -7 -11 1 -21 9 -11 14 -12 19 -3 10 15 33 1
26 -16 -2 -7 4 -15 15 -18 10 -3 19 -1 19 4 0 5 -4 9 -10 9 -5 0 -10 5 -10 11
0 5 5 7 10 4 6 -3 10 3 10 14 0 12 4 21 10 21 6 0 6 9 0 26 -13 32 -13 35 3
31 8 -1 12 14 12 51 0 36 5 56 15 62 11 7 5 10 -22 10 -21 0 -38 -4 -38 -10 0
-5 5 -10 12 -10 6 0 9 -3 5 -6 -3 -3 -1 -19 5 -35 7 -22 7 -33 -2 -44 -7 -9
-10 -29 -7 -48 l6 -32 -14 31 c-8 17 -23 34 -33 36 -13 4 -22 18 -26 43 -4 20
-10 34 -14 30 -4 -4 -13 19 -19 52 l-13 58 5 -60z m84 -192 c0 5 6 5 11 2 6
-4 8 -11 4 -16 -4 -6 -10 -6 -19 1 -7 6 -19 9 -26 7 -8 -2 -11 -2 -6 0 4 3 7
15 7 27 0 37 15 40 21 4 4 -18 7 -29 8 -25z"/>
<path d="M660 714 c0 -8 5 -12 10 -9 6 3 10 10 10 16 0 5 -4 9 -10 9 -5 0 -10
-7 -10 -16z"/>
<path d="M677 635 c-4 -33 -7 -67 -8 -75 -1 -40 -11 -80 -19 -75 -5 3 -11 1
-15 -5 -3 -5 -11 -10 -16 -10 -6 0 -8 4 -5 8 6 10 -40 10 -50 0 -11 -12 -46
-10 -39 2 4 6 -5 10 -19 10 -16 0 -26 -6 -26 -14 0 -10 13 -14 44 -13 45 0 81
-17 70 -34 -3 -5 -10 -9 -15 -9 -6 0 -7 5 -4 10 10 15 -3 12 -25 -7 -11 -10
-30 -21 -43 -25 -14 -5 -9 -6 13 -3 19 3 36 10 38 15 2 5 9 7 16 4 19 -7 102
59 98 79 -2 10 4 20 13 23 10 4 13 13 10 24 -3 10 -1 21 5 25 5 3 10 14 9 23
0 14 -2 14 -10 -3 -7 -15 -9 -11 -6 20 2 22 1 51 -3 65 -5 19 -8 11 -13 -35z
m-76 -166 c15 -8 24 -7 35 2 12 10 13 9 8 -5 -7 -19 -21 -20 -54 -1 -29 16
-19 20 11 4z"/>
<path d="M200 636 c0 -8 5 -18 10 -21 6 -3 10 3 10 14 0 12 -4 21 -10 21 -5 0
-10 -6 -10 -14z"/>
<path d="M301 634 c0 -11 3 -14 6 -6 3 7 2 16 -1 19 -3 4 -6 -2 -5 -13z"/>
<path d="M642 620 c0 -19 2 -27 5 -17 2 9 2 25 0 35 -3 9 -5 1 -5 -18z"/>
<path d="M920 635 c0 -8 2 -15 4 -15 2 0 6 7 10 15 3 8 1 15 -4 15 -6 0 -10
-7 -10 -15z"/>
<path d="M470 612 c0 -23 -8 -41 -26 -57 -28 -26 -51 -34 -38 -14 4 7 -1 7
-15 -1 -16 -8 -19 -15 -12 -24 8 -9 2 -12 -23 -12 -30 0 -33 2 -26 21 4 11 14
20 21 20 21 0 24 8 12 29 -10 18 -11 18 -27 -5 -8 -14 -19 -40 -22 -57 l-7
-33 28 13 c23 10 29 10 33 0 6 -18 20 -14 27 8 3 11 13 20 21 20 8 0 13 -4 10
-9 -3 -5 1 -11 9 -15 9 -3 15 0 15 9 0 8 8 19 18 24 9 6 12 11 5 11 -9 0 -9 9
1 38 9 24 11 44 5 53 -6 10 -9 4 -9 -19z"/>
<path d="M1220 633 c0 -5 5 -15 10 -23 8 -12 10 -11 10 8 0 12 -4 22 -10 22
-5 0 -10 -3 -10 -7z"/>
<path d="M830 577 c0 -19 4 -26 12 -21 6 4 17 -1 25 -11 13 -18 13 -18 12 1 0
10 -4 28 -9 39 -8 19 -9 19 -9 1 -1 -20 -1 -20 -16 0 -14 18 -14 18 -15 -9z"/>
<path d="M906 584 c-4 -9 -4 -19 -1 -22 2 -3 7 3 11 12 4 9 4 19 1 22 -2 3 -7
-3 -11 -12z"/>
<path d="M1123 555 c-8 -8 -9 -16 -3 -20 5 -3 14 4 20 15 12 23 1 26 -17 5z"/>
<path d="M645 530 c-4 -12 -5 -24 -2 -27 3 -2 8 5 12 17 4 12 5 24 2 27 -3 2
-8 -5 -12 -17z"/>
<path d="M340 529 c0 -5 5 -7 10 -4 6 3 10 8 10 11 0 2 -4 4 -10 4 -5 0 -10
-5 -10 -11z"/>
<path d="M827 524 c3 -8 10 -11 15 -8 6 4 14 0 19 -7 6 -9 9 -10 9 -2 0 13
-17 26 -37 29 -6 1 -9 -4 -6 -12z"/>
<path d="M1050 515 c-1 -5 -2 -13 -1 -17 2 -13 -34 -9 -48 5 -11 10 -13 10 -7
0 5 -9 0 -13 -13 -13 -12 0 -21 -5 -21 -11 0 -8 -4 -8 -15 1 -8 6 -20 8 -26 4
-7 -4 -18 1 -27 12 -12 16 -14 16 -9 2 3 -10 2 -20 -3 -23 -6 -4 -10 -2 -10 3
0 6 -8 13 -17 16 -10 3 2 -12 26 -34 40 -37 70 -53 56 -31 -3 5 0 13 5 16 7 5
5 12 -7 21 -10 7 -13 14 -6 14 6 0 15 -4 18 -10 3 -5 22 -10 41 -10 19 0 33 4
30 9 -7 11 34 2 52 -12 6 -5 12 -6 12 -2 0 4 7 2 15 -5 20 -17 29 -7 16 18 -6
11 -7 23 -3 27 4 5 1 5 -6 1 -7 -4 -10 -12 -7 -17 4 -5 1 -9 -4 -9 -6 0 -14
-1 -18 -2 -4 -2 -11 11 -14 27 -4 17 -8 26 -9 20z m-140 -56 c11 -19 10 -20
-10 -9 -11 6 -18 15 -15 21 9 13 13 11 25 -12z"/>
<path d="M1070 510 c0 -5 5 -10 10 -10 6 0 10 5 10 10 0 6 -4 10 -10 10 -5 0
-10 -4 -10 -10z"/>
<path d="M1193 497 c4 -10 7 -25 7 -33 0 -8 10 -14 25 -14 14 0 25 5 25 10 0
6 -5 10 -11 10 -7 0 -21 10 -32 23 -16 17 -19 18 -14 4z"/>
<path d="M334 461 c6 -9 63 -7 73 3 4 3 -13 6 -36 6 -23 0 -40 -4 -37 -9z"/>
<path d="M280 441 c0 -6 5 -11 10 -11 6 0 10 -5 10 -11 0 -6 -7 -8 -16 -5 -9
3 -12 2 -8 -5 3 -6 15 -9 25 -6 11 3 19 1 19 -4 0 -6 15 -7 36 -3 25 5 39 3
44 -7 7 -10 14 -10 32 -2 l23 12 -27 0 c-15 1 -30 6 -33 11 -9 14 16 12 47 -4
18 -10 30 -11 34 -4 12 18 -11 26 -86 30 -41 2 -83 8 -92 12 -12 5 -18 4 -18
-3z"/>
<path d="M948 445 c-13 -21 23 -43 82 -50 114 -14 124 -14 105 -5 -15 8 -7 9
30 5 40 -4 46 -3 31 6 -12 7 -42 9 -80 6 -77 -7 -154 8 -158 31 -2 10 -6 13
-10 7z"/>
<path d="M1200 421 c0 -11 31 -24 39 -16 3 3 -1 10 -9 15 -19 12 -30 12 -30 1z"/>
<path d="M190 220 l0 -100 1030 0 1030 0 0 100 0 100 -1030 0 -1030 0 0 -100z
m921 50 c14 -8 19 -21 19 -55 0 -40 -3 -45 -27 -51 -37 -10 -57 7 -61 52 -3
28 1 42 14 51 22 16 30 16 55 3z m760 0 c25 -14 25 -50 0 -50 -11 0 -22 8 -24
18 -3 9 -5 -1 -5 -23 0 -22 2 -32 5 -22 5 20 43 23 43 3 0 -22 -26 -38 -57
-34 -25 3 -28 7 -31 48 -3 33 1 47 14 57 22 16 30 16 55 3z m-1511 -55 c0 -48
-2 -55 -20 -55 -18 0 -20 7 -20 55 0 48 2 55 20 55 18 0 20 -7 20 -55z m221
43 c0 -10 2 -10 6 0 2 6 13 12 24 12 16 0 19 -7 19 -55 0 -47 -3 -55 -18 -55
-11 0 -24 10 -30 23 l-11 22 0 -22 c-1 -14 -7 -23 -16 -23 -12 0 -15 13 -15
55 0 48 2 55 20 55 11 0 20 -6 21 -12z m289 3 c0 -5 -6 -12 -12 -14 -10 -4 -9
-8 2 -16 11 -8 12 -13 4 -18 -7 -5 -13 -17 -15 -28 -3 -12 -14 -21 -27 -23
-21 -3 -22 0 -22 52 l0 56 35 0 c19 0 35 -4 35 -9z m520 -1 c0 -5 -7 -10 -15
-10 -11 0 -15 -12 -15 -45 0 -38 -3 -45 -20 -45 -17 0 -20 7 -20 45 0 25 -4
45 -10 45 -5 0 -10 5 -10 10 0 6 20 10 45 10 25 0 45 -4 45 -10z m230 1 c0 -5
-6 -12 -12 -14 -10 -4 -9 -8 2 -16 13 -10 13 -12 0 -21 -13 -9 -13 -12 3 -21
24 -14 12 -29 -24 -29 -29 0 -29 1 -29 55 0 54 0 55 30 55 17 0 30 -4 30 -9z
m532 -46 c-3 -46 -7 -55 -23 -55 -13 0 -19 8 -20 23 l-2 22 -4 -23 c-3 -15
-10 -22 -21 -20 -13 2 -18 16 -20 56 l-3 52 48 0 48 0 -3 -55z"/>
<path d="M1083 215 c0 -22 2 -30 4 -17 2 12 2 30 0 40 -3 9 -5 -1 -4 -23z"/>
</g>
</svg>
